<?xml version="1.0"?><svg xmlns="http://www.w3.org/2000/svg"  viewBox="0 0 30 30" width="20px" height="20px">    <path d="M 15 1.6171875 C 14.673 1.6171875 14.345156 1.7589687 14.160156 2.0429688 L 10.044922 8.3847656 L 2.7402344 10.339844 C 2.4132344 10.426844 2.1538281 10.673094 2.0488281 10.996094 C 1.9448281 11.318094 2.0096563 11.672547 2.2226562 11.935547 L 6.9824219 17.810547 L 6.5859375 25.359375 C 6.5679375 25.697375 6.7220937 26.021703 6.9960938 26.220703 C 7.075264 26.278492 7.163987 26.319896 7.2539062 26.351562 C 7.2795802 26.360596 7.3057864 26.364209 7.3320312 26.371094 C 7.3990353 26.388733 7.466028 26.400841 7.5351562 26.404297 C 7.5516777 26.405119 7.5674219 26.412109 7.5839844 26.412109 C 7.5984441 26.412109 7.6124768 26.404925 7.6269531 26.404297 C 7.7340458 26.399846 7.840534 26.384751 7.9433594 26.345703 L 15 23.636719 L 22.058594 26.345703 C 22.174594 26.389703 22.295016 26.412109 22.416016 26.412109 C 22.624016 26.412109 22.830906 26.346703 23.003906 26.220703 C 23.277906 26.021703 23.432063 25.697375 23.414062 25.359375 L 23.019531 17.810547 L 27.777344 11.935547 C 27.989344 11.672547 28.056172 11.318094 27.951172 10.996094 C 27.846172 10.674094 27.586766 10.427844 27.259766 10.339844 L 19.955078 8.3847656 L 15.839844 2.0429688 C 15.655844 1.7589688 15.327 1.6171875 15 1.6171875 z M 15 4.4238281 L 18.279297 9.4726562 L 18.697266 10.117188 L 19.439453 10.316406 L 25.253906 11.873047 L 21.464844 16.552734 L 20.982422 17.148438 L 21.021484 17.916016 L 21.337891 23.927734 L 15.716797 21.769531 L 15 21.494141 L 15 4.4238281 z"/></svg>